<?xml version="1.0" standalone="no"?>
<!DOCTYPE svg PUBLIC "-//W3C//DTD SVG 20010904//EN"
 "http://www.w3.org/TR/2001/REC-SVG-20010904/DTD/svg10.dtd">
<svg version="1.0" xmlns="http://www.w3.org/2000/svg"
 width="215.000000pt" height="215.000000pt" viewBox="0 0 215.000000 215.000000"
 preserveAspectRatio="xMidYMid meet">
<metadata>
Created by potrace 1.14, written by Peter Selinger 2001-2017
</metadata>
<g transform="translate(0.000000,215.000000) scale(0.100000,-0.100000)"
fill="#000000" stroke="none">
<path d="M937 2144 c-1 -1 -122 -4 -268 -7 -274 -5 -298 -9 -319 -48 -18 -33
-9 -668 15 -1054 3 -44 7 -120 10 -170 3 -49 7 -110 10 -135 2 -25 7 -84 10
-131 3 -47 7 -95 9 -105 2 -10 7 -55 10 -99 4 -44 9 -91 11 -105 2 -14 7 -47
10 -75 18 -157 20 -161 118 -169 37 -3 95 -9 130 -12 34 -3 89 -7 122 -9 33
-2 114 -7 180 -11 151 -10 459 -10 589 -1 186 14 225 36 236 134 7 58 3 1071
-4 1218 -2 44 -6 145 -10 225 -4 80 -9 170 -11 200 -3 30 -7 97 -11 149 -11
179 -28 192 -269 198 -168 4 -566 9 -568 7z m480 -127 c122 -1 224 -5 227 -7
4 -5 8 -53 21 -222 2 -31 7 -126 10 -210 4 -84 9 -182 11 -218 5 -91 11 -1038
6 -1132 -3 -58 -7 -78 -19 -82 -62 -24 -617 -25 -863 -1 -19 2 -80 7 -135 10
-55 4 -103 10 -107 14 -9 8 -25 133 -43 331 -3 36 -8 85 -10 110 -3 25 -7 90
-11 145 -4 55 -8 116 -10 135 -2 30 -10 185 -19 355 -2 28 -6 210 -10 406 l-7
356 23 5 c13 2 137 5 274 7 138 1 251 3 252 4 1 1 43 1 95 0 51 -1 193 -4 315
-6z"/>
<path d="M766 1931 c-24 -26 -27 -121 -31 -930 -4 -695 -3 -722 29 -743 17
-12 50 -9 70 5 17 13 18 52 20 720 2 389 5 709 8 712 3 3 21 -28 41 -68 39
-79 74 -194 83 -267 2 -25 13 -56 23 -70 33 -46 94 -27 106 33 4 17 13 50 20
72 7 22 27 96 45 165 35 132 45 156 46 112 1 -51 15 -261 19 -284 2 -13 6 -79
10 -148 3 -69 8 -145 10 -170 6 -65 18 -300 30 -600 3 -91 8 -180 10 -199 13
-110 126 -86 119 26 -1 26 -5 120 -9 208 -3 88 -8 187 -10 220 -2 33 -6 119
-10 190 -3 72 -8 150 -10 175 -2 25 -7 88 -10 140 -3 52 -8 127 -10 165 -3 39
-7 106 -10 150 -3 44 -7 98 -10 120 -2 22 -7 81 -10 130 -4 52 -13 100 -22
114 -13 20 -21 23 -60 18 -27 -3 -54 -14 -70 -28 -25 -24 -61 -86 -68 -118
-16 -64 -48 -178 -54 -189 -5 -9 -15 7 -29 45 -25 68 -105 205 -157 269 -41
49 -79 58 -109 25z"/>
</g>
</svg>
