<?xml version="1.0" standalone="no"?>
<!DOCTYPE svg PUBLIC "-//W3C//DTD SVG 20010904//EN"
 "http://www.w3.org/TR/2001/REC-SVG-20010904/DTD/svg10.dtd">
<svg version="1.0" xmlns="http://www.w3.org/2000/svg"
 width="1572.000000pt" height="1572.000000pt" viewBox="0 0 1572.000000 1572.000000"
 preserveAspectRatio="xMidYMid meet">
<metadata>
Created by potrace 1.14, written by Peter Selinger 2001-2017
</metadata>
<g transform="translate(0.000000,1572.000000) scale(0.100000,-0.100000)"
fill="#000000" stroke="none">
<path d="M6929 15705 c-3 -2 -119 -7 -259 -11 -449 -12 -506 -14 -825 -29
-414 -20 -597 -31 -655 -40 -95 -14 -187 -59 -232 -114 -34 -39 -75 -125 -85
-176 -9 -47 -9 -1618 1 -2590 4 -368 7 -676 7 -682 -1 -7 -1 -19 -1 -25 0 -7
2 -161 4 -343 13 -929 17 -1209 21 -1415 8 -437 16 -827 20 -1005 2 -99 7
-290 10 -425 3 -135 7 -324 10 -420 3 -96 8 -272 10 -390 8 -335 23 -830 30
-1031 2 -69 7 -206 10 -305 3 -98 7 -231 10 -294 2 -63 6 -187 10 -275 3 -88
7 -209 10 -270 2 -60 7 -177 10 -260 3 -82 7 -190 10 -240 2 -49 7 -160 10
-245 3 -85 8 -195 10 -245 13 -296 16 -358 20 -435 2 -47 7 -143 10 -215 8
-183 20 -436 30 -620 2 -38 6 -127 10 -197 3 -70 7 -156 10 -190 2 -35 7 -119
10 -188 4 -69 8 -154 10 -190 10 -167 17 -291 21 -350 2 -36 6 -108 9 -160 3
-52 7 -129 10 -170 2 -41 7 -120 10 -175 3 -55 8 -122 10 -150 3 -27 7 -99 10
-160 4 -60 8 -130 10 -155 3 -43 10 -154 20 -325 2 -44 7 -111 10 -150 3 -38
7 -101 10 -140 3 -38 7 -108 10 -155 3 -47 8 -110 12 -140 3 -30 5 -65 4 -77
0 -12 4 -25 9 -28 6 -3 10 -13 10 -21 0 -24 47 -87 83 -111 29 -20 58 -28 172
-47 17 -3 41 -7 55 -10 14 -3 45 -7 70 -10 25 -3 56 -8 70 -11 14 -3 41 -7 61
-10 20 -2 78 -12 130 -20 52 -9 108 -18 124 -19 17 -2 44 -6 60 -9 17 -3 66
-11 110 -17 44 -6 91 -13 105 -15 14 -3 59 -9 100 -15 41 -6 86 -12 100 -14
14 -3 48 -7 75 -11 28 -4 66 -9 85 -11 19 -3 46 -7 60 -8 30 -4 122 -16 170
-22 82 -11 152 -20 255 -30 33 -3 71 -7 85 -10 14 -2 52 -7 85 -10 33 -3 76
-7 95 -9 19 -2 73 -7 120 -11 47 -3 101 -8 120 -10 32 -3 83 -7 255 -19 241
-17 373 -20 775 -20 250 0 509 4 575 8 111 7 143 10 280 22 28 2 79 7 115 10
36 3 76 8 90 10 14 3 49 7 78 11 29 3 62 7 73 9 11 2 47 7 80 10 33 4 70 8 82
11 12 2 39 6 62 9 75 11 210 46 241 63 18 9 49 26 70 36 22 11 41 22 44 26 3
3 23 18 45 34 69 50 141 133 179 205 61 117 65 147 71 641 3 245 5 454 5 465
-1 25 -2 -60 7 625 15 1182 7 5829 -11 5858 -2 4 -1 14 3 21 5 7 5 28 1 47 -4
19 -4 50 0 69 4 19 5 35 1 35 -3 0 -7 91 -7 203 -4 535 -32 1998 -58 3042 -17
645 -22 826 -41 1440 -4 105 -8 253 -11 330 -10 352 -14 460 -19 595 -6 139
-9 245 -20 555 -12 354 -15 417 -20 527 -3 64 -10 130 -15 147 -4 16 -6 32 -4
34 9 8 -33 161 -59 217 -40 85 -58 111 -121 173 -53 51 -150 110 -204 122 -9
3 -36 9 -60 15 -24 6 -61 13 -84 15 -82 11 -385 26 -793 40 -99 3 -241 8 -315
11 -157 7 -2076 15 -2081 9z m574 -466 c29 0 77 0 107 0 30 0 61 0 68 0 6 0
41 0 77 0 36 0 73 1 83 1 28 0 125 -1 157 -1 17 -1 41 0 55 0 14 1 39 1 55 1
17 0 47 1 68 3 20 1 37 0 37 -3 0 -3 105 -6 233 -6 230 -1 616 -10 857 -19 69
-3 183 -7 254 -10 72 -2 180 -7 240 -10 61 -3 150 -7 197 -9 115 -5 153 -18
170 -59 8 -18 14 -34 14 -37 1 -3 4 -18 8 -35 11 -47 16 -118 22 -280 3 -82 7
-193 9 -245 3 -52 7 -189 11 -305 4 -115 9 -253 11 -305 2 -52 6 -169 8 -260
3 -91 8 -237 11 -325 7 -188 14 -419 20 -635 2 -85 7 -240 10 -345 12 -373 29
-1081 50 -2015 57 -2570 73 -5940 40 -8560 -3 -261 -8 -613 -10 -783 l-3 -307
-39 -36 c-37 -34 -88 -62 -128 -70 -11 -2 -31 -6 -45 -9 -14 -3 -43 -7 -65
-10 -22 -3 -52 -8 -67 -11 -15 -3 -39 -7 -55 -9 -15 -2 -59 -8 -98 -13 -38 -6
-77 -10 -85 -10 -8 -1 -35 -3 -60 -6 -107 -13 -165 -19 -332 -31 -357 -27
-1001 -22 -1438 10 -41 3 -102 7 -135 10 -64 4 -152 12 -225 20 -25 2 -76 7
-115 10 -38 3 -83 7 -100 10 -16 3 -57 7 -90 11 -114 11 -130 13 -180 19 -27
3 -66 8 -85 11 -19 3 -48 7 -65 9 -16 3 -52 7 -80 10 -66 7 -130 16 -212 29
-16 3 -48 7 -73 11 -25 3 -74 10 -110 15 -36 5 -81 12 -100 15 -19 2 -44 7
-56 9 -12 2 -45 7 -75 11 -30 3 -61 8 -69 10 -8 2 -35 6 -60 9 -25 3 -54 8
-65 10 -11 2 -42 7 -70 11 -51 8 -63 10 -125 20 -19 3 -45 7 -58 9 -30 4 -37
12 -39 44 -1 15 -4 65 -7 112 -3 47 -8 117 -11 155 -2 39 -7 97 -9 130 -3 33
-8 105 -11 160 -3 55 -7 136 -10 180 -3 44 -8 112 -10 150 -2 39 -7 115 -11
170 -4 55 -7 139 -8 187 0 49 -3 88 -6 88 -3 0 -6 21 -6 48 -1 26 -4 94 -8
152 -4 58 -10 148 -12 200 -7 132 -12 220 -18 330 -4 52 -8 136 -11 185 -8
163 -15 309 -20 410 -9 169 -23 464 -30 620 -3 55 -7 147 -10 205 -15 286 -37
818 -50 1155 -7 184 -13 347 -20 525 -7 186 -14 367 -20 550 -4 150 -10 328
-21 630 -3 96 -7 247 -10 335 -2 88 -6 232 -8 320 -3 88 -8 255 -11 370 -2
116 -7 296 -10 400 -3 105 -7 305 -10 445 -3 140 -8 343 -10 450 -22 1044 -30
1545 -50 3360 -10 862 -13 2330 -6 2335 4 2 59 7 122 10 63 3 155 8 204 11 50
3 135 7 190 9 55 2 163 6 240 10 77 3 190 7 250 10 193 8 562 16 823 20 139 2
256 6 259 9 3 3 10 3 15 0 5 -3 33 -6 61 -5z"/>
<path d="M6085 14935 c-37 -13 -142 -112 -130 -123 2 -3 0 -13 -6 -24 -10 -19
-15 -116 -24 -478 -3 -107 -7 -278 -10 -380 -13 -529 -24 -1115 -30 -1585 -2
-181 -5 -330 -6 -330 -4 0 -4 -2733 1 -2785 3 -33 3 -60 0 -60 -3 0 -4 -21 -3
-47 2 -27 5 -208 8 -403 6 -396 9 -417 72 -484 50 -53 108 -76 177 -71 94 6
157 48 200 133 l24 47 -6 395 c-3 217 -5 996 -6 1730 0 1404 6 2060 30 3045 3
160 7 332 8 383 0 55 4 91 10 89 13 -4 177 -323 212 -411 15 -39 35 -89 45
-111 50 -116 155 -453 180 -574 5 -23 14 -62 20 -84 6 -23 13 -53 15 -67 2
-14 6 -36 9 -50 8 -38 12 -65 30 -184 14 -100 35 -172 53 -186 4 -3 12 -14 18
-25 6 -11 35 -33 65 -48 47 -25 63 -28 120 -25 51 3 75 10 107 30 74 50 91 83
153 306 32 114 58 215 59 225 0 9 4 17 8 17 4 0 8 8 8 18 0 9 13 60 27 112 47
164 263 953 277 1008 17 63 30 67 31 10 1 -24 2 -54 4 -68 1 -14 5 -70 9 -125
4 -55 9 -127 12 -160 3 -33 7 -80 9 -105 9 -122 17 -230 20 -275 3 -45 9 -130
21 -285 2 -30 6 -95 9 -145 3 -49 7 -115 10 -145 3 -30 7 -91 10 -135 2 -44 7
-114 10 -155 6 -79 12 -172 20 -305 2 -44 7 -114 10 -155 7 -81 13 -188 20
-315 2 -44 6 -114 9 -155 3 -41 8 -127 11 -190 3 -63 8 -142 10 -175 3 -33 7
-107 10 -165 3 -58 7 -145 10 -195 3 -49 7 -128 10 -175 2 -47 6 -128 9 -180
4 -52 8 -142 11 -200 3 -58 7 -148 10 -200 9 -168 15 -302 20 -430 12 -294 14
-340 20 -440 3 -58 7 -166 10 -240 2 -74 7 -191 10 -260 3 -69 8 -181 10 -250
5 -145 9 -169 35 -221 43 -84 109 -124 200 -123 78 1 130 24 183 83 48 53 58
95 52 232 -2 63 -7 186 -10 274 -6 160 -9 230 -20 465 -3 69 -7 177 -10 240
-4 107 -7 175 -20 440 -3 58 -8 150 -10 205 -11 232 -15 305 -20 395 -7 116
-13 247 -20 400 -3 63 -7 138 -10 165 -2 28 -7 104 -11 170 -3 66 -8 147 -9
180 -2 33 -6 107 -9 165 -3 58 -8 128 -10 155 -3 28 -8 104 -11 170 -7 121 -8
138 -20 320 -4 55 -8 127 -10 160 -2 33 -6 105 -10 160 -4 55 -9 123 -10 150
-2 28 -6 86 -9 130 -3 44 -8 112 -11 150 -3 39 -8 108 -11 155 -3 47 -8 110
-10 140 -4 64 -10 156 -18 255 -3 39 -8 108 -11 155 -3 47 -8 110 -10 140 -3
30 -7 89 -10 130 -3 41 -8 100 -11 130 -2 30 -7 91 -9 135 -3 44 -7 98 -10
120 -2 22 -7 81 -10 130 -3 50 -8 106 -10 125 -3 19 -7 78 -10 130 -7 113 -9
128 -30 189 -16 49 -60 104 -108 134 -34 22 -108 29 -167 16 -25 -6 -56 -13
-69 -15 -33 -7 -129 -54 -159 -79 -57 -46 -132 -127 -165 -177 -35 -53 -107
-195 -122 -240 -4 -12 -8 -25 -9 -28 -7 -19 -29 -92 -38 -125 -5 -22 -14 -51
-19 -65 -5 -14 -11 -36 -13 -50 -3 -14 -12 -50 -21 -80 -9 -30 -18 -64 -20
-75 -3 -11 -21 -76 -40 -145 -19 -69 -38 -134 -40 -145 -3 -11 -18 -67 -34
-125 l-29 -105 -21 48 c-12 27 -21 52 -21 56 0 9 -114 291 -129 318 -5 10 -41
81 -79 158 -38 77 -83 164 -101 193 -17 29 -31 55 -31 58 0 3 -18 32 -40 65
-22 33 -40 62 -40 65 0 2 -28 45 -62 95 -35 50 -67 99 -73 108 -5 9 -12 18
-15 21 -3 3 -34 44 -70 93 -35 48 -68 87 -72 87 -4 0 -8 6 -8 14 0 8 -3 16 -8
18 -4 2 -24 24 -45 50 -21 25 -56 55 -77 66 -47 23 -140 27 -195 7z"/>
<path d="M9110 14740 c-86 -23 -156 -98 -173 -185 -17 -84 -40 -1202 -39
-1905 0 -630 17 -1463 37 -1895 2 -55 7 -165 11 -245 9 -225 12 -287 19 -405
3 -60 8 -146 10 -190 3 -44 7 -118 10 -165 2 -47 7 -123 10 -170 3 -47 8 -116
10 -155 2 -38 7 -97 10 -130 3 -33 7 -100 11 -150 5 -91 8 -135 19 -260 3 -38
7 -98 10 -133 3 -35 7 -87 10 -115 3 -29 7 -83 10 -122 3 -38 7 -94 10 -122 3
-29 7 -79 10 -110 11 -119 31 -169 91 -227 31 -30 102 -63 125 -58 3 0 24 3
46 6 85 10 173 75 198 147 13 33 15 63 10 124 -4 44 -8 103 -10 130 -2 28 -7
73 -10 100 -3 28 -8 79 -10 115 -3 36 -7 92 -10 125 -2 33 -7 98 -11 145 -3
47 -7 101 -9 120 -2 19 -7 80 -10 135 -3 55 -8 125 -11 155 -5 62 -12 167 -19
280 -2 41 -7 116 -10 165 -5 83 -10 155 -19 340 -3 39 -7 131 -10 205 -4 74
-9 174 -12 221 -2 48 -6 142 -9 210 -10 270 -16 450 -19 586 -3 78 -7 147 -11
153 -3 5 -2 10 3 10 5 0 8 12 6 28 -22 172 -21 1764 1 2547 15 525 15 513 -5
558 -22 49 -43 74 -85 103 -49 34 -129 49 -185 34z"/>
<path d="M6331 7809 c-135 -34 -238 -94 -280 -162 -24 -38 -30 -69 -36 -162
-4 -62 -17 -490 -15 -522 0 -7 0 -19 0 -25 1 -7 -2 -164 -6 -348 -20 -1022 -2
-2711 42 -3755 3 -77 7 -183 9 -235 6 -144 14 -333 20 -450 4 -58 8 -150 10
-205 3 -55 7 -136 9 -180 3 -44 7 -118 10 -165 3 -47 8 -141 12 -210 4 -69 8
-151 8 -182 1 -32 5 -58 10 -58 4 0 6 -6 3 -14 -3 -8 1 -22 8 -33 8 -10 15
-25 15 -33 0 -20 65 -87 104 -107 73 -38 195 -16 257 46 21 20 47 53 58 74 22
39 23 96 6 322 -3 39 -8 115 -10 170 -3 55 -7 132 -9 170 -3 39 -7 129 -11
200 -3 72 -8 164 -10 205 -4 74 -11 224 -21 430 -4 109 -10 271 -19 520 -3 80
-7 222 -11 315 -3 94 -5 176 -5 183 2 26 2 40 -3 162 -4 113 -17 807 -19 1007
0 46 1 85 4 87 13 13 88 -29 130 -74 46 -48 105 -130 100 -139 -2 -2 1 -7 6
-10 11 -7 93 -172 96 -192 2 -8 6 -19 9 -24 8 -12 70 -197 100 -295 81 -267
95 -315 148 -510 37 -139 59 -227 75 -300 2 -8 15 -62 28 -120 14 -58 28 -118
31 -135 4 -16 9 -41 12 -55 10 -45 24 -114 30 -145 2 -16 7 -37 10 -46 2 -10
6 -30 8 -45 2 -16 11 -67 20 -114 8 -47 17 -98 19 -115 3 -16 10 -57 15 -90 6
-33 13 -78 16 -100 3 -22 8 -51 10 -65 6 -29 16 -107 21 -165 2 -23 6 -54 9
-70 3 -17 9 -59 12 -95 3 -36 7 -78 10 -95 2 -16 6 -52 9 -80 3 -27 8 -72 10
-100 9 -85 25 -289 39 -520 8 -116 57 -198 141 -236 122 -56 292 26 322 154
11 50 5 172 -32 597 -2 19 -6 58 -9 85 -3 28 -9 77 -12 110 -8 87 -11 114 -19
175 -4 30 -8 69 -10 85 -5 43 -14 106 -19 135 -3 14 -7 45 -10 70 -4 25 -8 56
-11 70 -2 14 -7 42 -9 62 -7 53 -20 133 -30 174 -2 12 -7 39 -10 60 -3 22 -8
50 -11 64 -3 14 -7 39 -9 55 -3 17 -11 64 -20 105 -8 41 -17 86 -20 100 -2 14
-12 61 -21 105 -9 44 -18 87 -20 95 -4 18 -54 236 -62 265 -2 11 -8 36 -13 55
-4 19 -15 62 -24 95 -9 33 -33 120 -52 193 -19 73 -41 152 -49 176 -8 23 -16
51 -18 62 -2 10 -7 26 -10 34 -3 8 -11 35 -17 60 -6 25 -15 56 -20 70 -5 14
-23 70 -40 125 -61 193 -174 457 -231 536 -10 15 -19 32 -19 38 0 6 -4 11 -8
11 -4 0 -16 14 -26 32 -21 34 -37 54 -108 132 -26 28 -48 56 -48 61 0 6 12 24
28 40 46 50 96 117 140 185 23 36 46 70 50 75 4 6 18 30 30 55 13 25 27 52 32
60 13 20 84 178 95 210 1 3 4 12 8 20 49 120 106 365 124 533 14 135 7 495
-12 549 -2 7 -7 29 -10 48 -3 19 -10 53 -15 75 -6 22 -13 51 -16 65 -6 30 -38
121 -61 170 -8 19 -22 51 -31 70 -9 19 -18 37 -21 40 -4 3 -15 21 -26 41 -34
62 -66 101 -155 189 -94 93 -192 155 -311 197 -96 33 -99 34 -219 37 -79 3
-123 -1 -179 -15z m266 -471 c160 -59 305 -328 328 -607 10 -113 4 -327 -10
-387 -2 -12 -7 -39 -10 -60 -31 -207 -141 -483 -263 -658 -65 -94 -169 -216
-183 -216 -7 0 -3 776 6 1275 4 209 8 445 9 525 0 80 5 148 10 152 12 8 46 2
113 -24z"/>
<path d="M8548 7719 c-7 -4 -16 -5 -20 -3 -4 3 -8 0 -8 -5 0 -6 -7 -11 -14
-11 -15 0 -106 -80 -106 -92 0 -4 -5 -19 -12 -35 -17 -42 -19 -64 -33 -283 -3
-47 -8 -121 -10 -165 -8 -118 -13 -203 -30 -522 -3 -54 -7 -136 -10 -183 -2
-47 -6 -141 -10 -210 -11 -233 -15 -305 -20 -435 -40 -1054 -48 -1482 -48
-2560 -1 -758 4 -1184 18 -1758 10 -395 12 -409 77 -483 70 -80 175 -96 278
-44 102 53 139 149 119 312 -3 26 -2 53 2 60 4 7 5 17 1 22 -3 6 -7 58 -8 116
-1 58 -6 254 -10 435 -14 577 -9 2703 6 2706 3 1 16 2 30 4 23 3 47 6 170 20
24 3 54 7 66 9 12 3 47 7 78 11 48 6 56 5 57 -9 3 -33 6 -52 12 -76 4 -14 9
-45 12 -70 2 -25 6 -55 9 -66 2 -12 7 -39 10 -60 3 -22 9 -56 12 -77 3 -20 7
-47 9 -60 8 -56 46 -304 60 -392 4 -22 9 -53 11 -70 2 -16 9 -57 15 -90 6 -33
13 -76 14 -95 2 -19 4 -35 5 -35 1 0 3 -9 4 -20 11 -82 17 -122 21 -135 2 -8
7 -35 10 -60 3 -25 7 -56 9 -70 3 -14 17 -101 31 -195 14 -93 28 -177 30 -185
2 -8 6 -37 10 -65 3 -27 8 -57 10 -65 2 -8 6 -33 9 -55 8 -64 16 -118 21 -145
3 -14 7 -43 10 -65 3 -22 7 -51 10 -65 3 -14 7 -43 10 -65 3 -22 7 -51 10 -65
3 -14 8 -45 11 -70 3 -25 7 -52 10 -60 2 -8 6 -36 9 -62 3 -25 8 -57 11 -69 2
-13 7 -40 10 -59 3 -19 9 -60 14 -90 6 -30 12 -73 15 -95 2 -22 7 -51 9 -65 3
-14 8 -43 11 -65 3 -22 7 -51 10 -65 3 -14 7 -42 10 -62 12 -93 16 -117 26
-173 6 -33 12 -73 14 -90 16 -151 92 -239 217 -252 107 -11 211 59 240 162 15
52 16 65 4 155 -12 89 -13 94 -19 125 -4 17 -9 50 -12 75 -2 25 -7 56 -9 70
-8 44 -18 104 -21 130 -1 14 -8 54 -14 90 -15 94 -21 130 -27 175 -3 22 -7 51
-10 65 -3 14 -7 39 -9 55 -3 17 -7 44 -9 60 -3 17 -8 48 -11 70 -3 22 -8 51
-11 65 -2 14 -7 43 -10 65 -8 62 -20 142 -34 225 -5 30 -12 73 -15 95 -4 22
-9 54 -12 70 -7 41 -9 60 -18 130 -4 33 -9 63 -11 66 -1 3 -6 28 -10 55 -3 27
-8 56 -9 65 -2 9 -6 40 -10 69 -4 29 -9 62 -12 74 -2 12 -6 30 -8 41 -1 11 -6
37 -9 58 -3 21 -8 57 -11 80 -3 23 -7 53 -10 67 -8 38 -13 68 -25 155 -13 92
-14 95 -36 230 -9 55 -17 111 -19 125 -5 41 -15 103 -21 130 -3 14 -8 41 -10
60 -2 19 -6 46 -8 60 -2 14 -7 45 -10 70 -4 25 -11 70 -16 100 -5 30 -12 73
-15 95 -3 22 -7 51 -10 65 -3 14 -8 43 -10 65 -6 41 -22 145 -29 180 -3 18 -7
48 -22 155 -3 19 -7 42 -9 50 -2 8 -7 35 -11 60 -3 25 -7 54 -9 65 -2 11 -8
54 -14 95 -6 41 -13 86 -16 100 -2 14 -7 41 -9 60 -6 43 -16 106 -22 140 -2
14 -7 41 -10 60 -3 19 -9 60 -15 90 -5 30 -11 69 -14 85 -3 17 -8 46 -11 65
-4 19 -8 44 -9 56 -2 11 -8 45 -14 75 -12 58 -13 65 -35 179 -8 41 -22 107
-31 145 -9 39 -18 77 -20 85 -2 8 -17 69 -35 135 -17 66 -33 129 -35 140 -5
29 -103 326 -116 350 -5 12 -11 27 -13 35 -1 8 -10 32 -19 54 -9 21 -17 44
-17 50 0 7 -4 16 -8 22 -5 5 -24 45 -42 89 -45 106 -164 338 -202 392 -33 49
-91 89 -140 99 -52 10 -97 11 -110 3z m245 -1321 c3 -18 10 -51 15 -73 6 -22
13 -51 16 -65 3 -14 10 -46 16 -71 6 -26 13 -53 14 -60 2 -8 6 -25 9 -39 4
-14 9 -36 11 -50 3 -14 8 -38 11 -55 3 -16 10 -50 15 -75 5 -25 12 -58 15 -75
3 -16 7 -41 10 -55 17 -92 37 -210 41 -240 2 -19 7 -46 10 -60 3 -14 7 -41 10
-60 2 -19 7 -46 9 -60 3 -14 8 -45 11 -70 3 -25 11 -75 18 -112 7 -37 10 -71
7 -77 -3 -5 -31 -12 -61 -16 -63 -9 -78 -11 -140 -20 -25 -4 -58 -8 -75 -9
l-30 -1 1 140 c1 127 10 394 19 600 2 44 7 148 10 230 4 83 8 173 10 200 2 28
4 85 6 128 2 80 13 101 22 45z"/>
</g>
</svg>
